<svg version="1.1" id="Layer_1" xmlns="http://www.w3.org/2000/svg" xmlns:xlink="http://www.w3.org/1999/xlink" x="0px" y="0px"
	 viewBox="0 0 308.2 100" style="enable-background:new 0 0 308.2 100;" xml:space="preserve" width="300" height="100">

     <style>
     *{fill:#333}
        .virus {
          fill:#222;
          width: 60px;
          stroke:#222;
          stroke-width: 2px;
          stroke-dashoffset: 0;
            transition:all 0.3s;
          animation: animate 7s infinite ease-in-out;
        }
        @keyframes animate {
            0% {
              transform-origin: center;
              fill: none;
              stroke-dasharray: 1000;
              stroke-dashoffset: 1000;
              transform-origin: center;
              transition:all 0.3s;
            }

            30% {
              fill: none;
              transition:all 0.3s;
            }

            35% {
              fill:#222;
              transition:all 0.3s
            }

            80% {
              stroke-dasharray: 1000;
              stroke-dashoffset: 0;
              transition:all 0.3s;
            }

            100% {
              stroke-dasharray: 1000;
              transition:all 0.3s;
            }
        }
        <!-- .others{
            opacity:0
        } -->
        .others.active{
            opacity:1;
            transition:all 0.3s
        }
        .others{
            opacity:0;
            animation:show 7s infinite;
        }
        @keyframes show{
            0%{opacity:0;transition:all 0.3s}
            50%{opacity:0;transition:all 0.3s}
            75%{opacity:1;transition:all 0.3s}
            100%{opacity:1;transition:all 0.3s}
        }
     </style>
<g class="others">
    <polygon points="33.9,25.5 17.5,25.5 17.5,10.6 11.1,10.6 11.1,45.9 17.5,45.9 17.5,30.9 33.9,30.9 33.9,45.9 40.3,45.9 40.3,10.6
        33.9,10.6 "/>
    <polygon points="70,40.5 53.2,40.5 53.2,30.9 68.7,30.9 68.7,25.5 53.2,25.5 53.2,15.9 69.9,15.9 69.9,10.6 46.9,10.6 46.9,45.9
        70,45.9 "/>
    <polygon points="82.3,10.6 76,10.6 76,45.9 98,45.9 98,40.5 82.3,40.5 "/>
    <rect x="103" y="10.6" width="6.3" height="35.4"/>
    <path d="M131.3,46.4c8.4,0,14-5.4,14.9-12.2h-6.4c-0.9,4.2-4.2,6.5-8.4,6.5c-5.8,0-9.9-4.3-9.9-12.5c0-8,4.1-12.5,9.9-12.5
        c4.3,0,7.7,2.4,8.4,6.7h6.4c-1.1-7.9-7.1-12.4-14.9-12.4c-9.3,0-16.2,6.7-16.2,18.2C115.1,39.6,121.9,46.4,131.3,46.4z"/>
    <path d="M228.7,36.3c0-5.4-3.8-8.5-7.6-8.7v-0.3c3.5-0.8,6.2-3.2,6.2-7.5c0-5.3-3.8-9.2-11.5-9.2h-13.5v35.4h14.3
        C224.7,45.9,228.7,41.8,228.7,36.3z M208.7,40.6V30.2h7.1c4,0,6.4,2.4,6.4,5.6c0,2.8-2,4.8-6.6,4.8H208.7z"/>
    <polygon points="244,10.6 231.6,45.9 238.4,45.9 241.3,37.2 254.6,37.2 257.5,45.9 264.3,45.9 251.8,10.6 "/>
    <path d="M282.3,40.7c-5.8,0-9.9-4.3-9.9-12.5c0-8,4.1-12.5,9.9-12.5c4.3,0,7.7,2.4,8.4,6.7h6.4c-1.1-7.9-7.1-12.4-14.9-12.4
        c-9.3,0-16.2,6.7-16.2,18.2c0,11.4,6.8,18.2,16.2,18.2c8.4,0,14-5.4,14.9-12.2h-6.4C289.8,38.3,286.5,40.7,282.3,40.7z"/>
    <path d="M23.3,60.6H11.1v35.4h12c10.7,0,17.1-6.7,17.1-17.7C40.3,67.2,33.9,60.6,23.3,60.6z"/>
    <polygon points="54.2,60.6 41.7,95.9 48.5,95.9 51.4,87.2 64.7,87.2 67.7,95.9 74.5,95.9 62,60.6 "/>
    <rect x="78.5" y="75.7" width="15.9" height="5.1"/>
    <polygon points="129.3,60.6 121.5,60.6 107.7,76.8 107.2,76.8 107.2,60.6 100.9,60.6 100.9,95.9 107.2,95.9 107.2,85.4 111.2,80.7
        121.8,95.9 129.4,95.9 115.6,76.4 "/>
    <polygon points="147.1,76.2 146.8,76.2 138.1,60.6 130.9,60.6 143.8,82.7 143.8,95.9 150.1,95.9 150.1,82.7 163,60.6 155.8,60.6 "/>
    <path d="M189.4,83.1c0,4.5-3.1,7.6-8,7.7c-4.9,0-8-3.2-8-7.7V60.6h-6.3v23.1c0,7.6,5.7,12.8,14.4,12.8c8.6,0,14.3-5.2,14.4-12.8
        V60.6h-6.4V83.1z"/>
    <polygon points="225.1,84.7 224.7,84.7 208.1,60.6 202.3,60.6 202.3,95.9 208.7,95.9 208.7,71.7 209,71.7 225.7,95.9 231.4,95.9
        231.4,60.6 225.1,60.6 "/>
</g>
<path class="virus" d="M190,26.4l7.7-5.3l-8.7,0c-0.2-0.7-0.5-1.3-0.7-1.9l4.3-7.1l-7,3.1c-0.7-0.8-1.5-1.5-2.3-2.1l0.9-7.2l-4.7,5.2
	c-1.1-0.4-2.2-0.7-3.4-0.8l-2-6.7l-2.1,6.6c-1.2,0.1-2.4,0.4-3.5,0.7L164,5.6l0.7,7.1c-0.9,0.6-1.7,1.3-2.4,2.1l-6.8-3.2l4.1,7.1
	c-0.3,0.6-0.6,1.3-0.8,2l-8.5-0.2l7.5,5.4c0,0.4,0,0.8-0.1,1.3l-8.6,3.6l9,1.9c0.1,0.5,0.2,1,0.3,1.4l-6.2,6.5l8.1-1.7
	c0.4,0.7,0.9,1.3,1.4,1.9l-2.7,7.6l6.2-4.5c0.8,0.5,1.7,1,2.6,1.3l0.6,7.5l3.7-6.5c0.6,0.1,1.1,0.1,1.7,0.1c0.5,0,0.9,0,1.3-0.1
	l3.6,6.6l0.8-7.5c0.9-0.3,1.8-0.7,2.7-1.2l6.1,4.6l-2.5-7.6c0.5-0.6,1-1.2,1.4-1.9l8.1,1.9l-6-6.7c0.1-0.5,0.2-0.9,0.3-1.4l9-1.7
	l-8.6-3.8C190,27.1,190,26.7,190,26.4z"/>

</svg>