<?xml version="1.0" encoding="utf-8"?>
<!-- Generator: Adobe Illustrator 26.2.1, SVG Export Plug-In . SVG Version: 6.00 Build 0)  -->
<svg version="1.1" id="Layer_1" xmlns="http://www.w3.org/2000/svg" xmlns:xlink="http://www.w3.org/1999/xlink" x="0px" y="0px"
	 viewBox="0 0 329.1 110.9" style="enable-background:new 0 0 329.1 110.9;" xml:space="preserve">
<style type="text/css">
	.st0{fill:#222222;stroke:#222222;stroke-width:1.9468;stroke-miterlimit:3.8936;}
	.st1{opacity:0;}
	.st2{fill:#333333;}
	.st3{fill:#222222;}
	.st4{fill:#3D3D3D;stroke:#222222;stroke-width:1.9468;stroke-miterlimit:3.8936;}
	.st5{fill:#3D3D3D;}
	.virus {
          fill:#3D3D3D;
          width: 60px;
          stroke:#222;
          stroke-width: 2px;
          stroke-dashoffset: 0;
            transition:all 0.3s;
          animation: animate 6s infinite ease-in-out;
        }
        @keyframes animate {
            0% {
              transform-origin: center;
              fill: none;
              stroke-dasharray: 1000;
              stroke-dashoffset: 1000;
              transform-origin: center;
              transition:all 0.3s;
            }

            30% {
              fill: none;
              transition:all 0.3s;
            }

            35% {
              fill:#222;
              transition:all 0.3s
            }

            80% {
              stroke-dasharray: 1000;
              stroke-dashoffset: 0;
              transition:all 0.3s;
            }

            100% {
              stroke-dasharray: 1000;
              transition:all 0.3s;
            }
        }
        <!-- .others{
            opacity:0
        } -->
        .others.active{
            opacity:1;
            transition:all 0.3s
        }
        .others{
            opacity:0;
            animation:show 6s infinite;
        }
        @keyframes show{
            0%{opacity:0;transition:all 0.3s}
            50%{opacity:0;transition:all 0.3s}
            75%{opacity:1;transition:all 0.3s}
            100%{opacity:1;transition:all 0.3s}
        }
</style>
<g class="others">
	<path class="st5" d="M58.5,18.4h22.9v5.8H65.6v8.3h14.7v5.8H65.6v8.3h15.9v5.9h-23V18.4z"/>
	<path class="st5" d="M87,18.4h7.1v28.3h14.7v5.9H87V18.4z"/>
	<path class="st5" d="M120.4,52.5h-7.1V18.4h7.1V52.5z"/>
	<path class="st5" d="M225.9,18.4h13.6c7.5,0,11.3,3.6,11.3,8.8c0,4-2.6,6.5-6.1,7.3v0.3c3.8,0.2,7.5,3.3,7.5,8.3
		c0,5.4-4.1,9.4-11.8,9.4h-14.5V18.4z M238.4,32.7c3,0,5.2-1.7,5.2-4.4c0-2.5-1.8-4.2-5-4.2h-5.6v8.5H238.4z M238.9,46.7
		c4.1,0,5.9-1.7,5.8-4.2c0-2.9-2.2-4.9-5.7-4.9h-6.2v9.2H238.9z"/>
	<path class="st5" d="M254.7,52.5l11.8-34.2h9.1l11.8,34.2h-7.6l-2.6-7.9h-12.4l-2.6,7.9H254.7z M275.5,39.1l-4.3-13.1H271
		l-4.3,13.1H275.5z"/>
	<path class="st5" d="M305.1,24.2c-5.3,0-8.8,4.1-8.8,11.3c0,7.4,3.6,11.3,8.8,11.3c3.9,0,6.8-2.1,7.5-5.9l7.2,0
		C318.9,47.3,313.6,53,305,53c-9.1,0-15.9-6.4-15.9-17.6c0-11.2,6.9-17.6,15.9-17.6c7.9,0,13.8,4.5,14.8,12.4h-7.2
		C312,26.5,309.1,24.2,305.1,24.2z"/>
	<path class="st5" d="M43.8,101.7l11.8-34.2h9.1l11.8,34.2H69l-2.6-7.9H54l-2.6,7.9H43.8z M64.6,88.3l-4.3-13.1h-0.2l-4.3,13.1H64.6
		z"/>
	<path class="st5" d="M96.2,87.4H80.6v-5.6h15.6V87.4z"/>
	<path class="st5" d="M140.1,67.5l7.9,14.7h0.3l7.8-14.7h8l-12.5,22v12.2h-7.1V89.5l-12.5-22H140.1z"/>
	<path class="st5" d="M196,67.5v22.2c0,7.5-5.7,12.5-14.2,12.5c-8.5,0-14.1-5-14.1-12.5V67.5h7.1v21.6c0,3.9,2.8,6.8,7,6.8
		c4.3,0,7.1-2.9,7-6.8V67.5H196z"/>
	<path class="st5" d="M230.3,101.7h-6.1l-15-21.7h-0.3v21.7h-7.1V67.5h6.2l14.9,21.7h0.3V67.5h7V101.7z"/>
		<path class="st5" d="M47.6,52.2c-0.1,0.2-0.2,0.3-0.3,0.3c-1.3,0-2.3,0-3-0.1l-4.1-0.1l-4.9,0.1c-0.7,0-1.5,0.1-2.7,0.1
			c-0.1,0-0.1-0.1-0.1-0.3c0.1-0.2,0.2-0.3,0.3-0.3c1.3,0,2.3-0.1,3-0.3c0.7-0.2,1.2-0.5,1.6-1c0.4-0.5,0.8-1.3,1.1-2.5l4.1-12.5
			H25.2l-4.1,12.5c-0.4,1.1-0.5,1.9-0.5,2.4c0,0.5,0.3,0.9,0.9,1.1c0.6,0.2,1.5,0.3,2.8,0.3c0.1,0,0.1,0.1,0,0.3
			c-0.1,0.2-0.1,0.3-0.2,0.3c-1.3,0-2.3,0-3-0.1l-4.7-0.1l-4.1,0.1c-0.7,0-1.7,0.1-3,0.1c-0.1,0-0.1-0.1,0-0.3s0.1-0.3,0.2-0.3
			c1.3,0,2.2-0.1,2.8-0.3c0.6-0.2,1.1-0.5,1.5-1.1c0.4-0.5,0.8-1.3,1.1-2.4l8.2-25.2c0.4-1.1,0.5-1.9,0.5-2.4
			c-0.1-0.5-0.3-0.9-0.8-1.1c-0.5-0.2-1.4-0.3-2.6-0.3c-0.1,0-0.1-0.1-0.1-0.3c0.1-0.2,0.2-0.3,0.3-0.3l2.9,0.1c1.6,0.1,3,0.1,4,0.1
			c1.4,0,3,0,4.8-0.1l3-0.1c0.1,0,0.1,0.1,0,0.3c-0.1,0.2-0.1,0.3-0.2,0.3c-1.3,0-2.3,0.1-3,0.3c-0.7,0.2-1.2,0.6-1.6,1.1
			c-0.4,0.5-0.8,1.3-1.1,2.4L25.7,34h17.4l3.6-11.1c0.4-1.1,0.5-1.9,0.5-2.4c0-0.5-0.3-0.9-0.9-1.1c-0.5-0.2-1.5-0.3-2.8-0.3
			c-0.1,0-0.1-0.1-0.1-0.3c0.1-0.2,0.2-0.3,0.3-0.3l2.6,0.1c1.8,0.1,3.4,0.1,4.8,0.1c1,0,2.4,0,4.2-0.1l3-0.1c0.1,0,0.1,0.1,0.1,0.3
			c-0.1,0.2-0.2,0.3-0.3,0.3c-1.2,0-2.2,0.1-2.8,0.3c-0.7,0.2-1.2,0.6-1.5,1.1c-0.4,0.5-0.7,1.3-1.1,2.4l-8.2,25.2
			c-0.4,1.1-0.5,1.9-0.5,2.4c0,0.5,0.3,0.9,0.8,1.1c0.5,0.2,1.4,0.3,2.7,0.3C47.7,51.8,47.7,52,47.6,52.2z"/>
	
		<path class="st5" d="M125.3,101.5c-0.1,0.2-0.2,0.3-0.3,0.3h-6c-0.6,0-1.1,0-1.5,0.1c-0.4,0-0.7,0.1-1,0.1c-0.6,0-1-0.1-1.4-0.4
			c-0.3-0.3-0.7-0.8-1-1.5c-0.4-0.7-1-2.1-1.8-4.2c-0.1-0.3-0.2-0.5-0.3-0.8c-0.1-0.3-0.3-0.7-0.4-1.1l-4-9.6l-1.6,1.2l-3.9,11.9
			c-0.4,1.1-0.5,1.9-0.5,2.5c0,0.5,0.3,0.9,0.7,1c0.5,0.2,1.3,0.3,2.4,0.3c0.1,0,0.2,0.1,0.1,0.3s-0.2,0.3-0.3,0.3
			c-1.2,0-2.1,0-2.8-0.1l-4-0.1l-4,0.1c-0.7,0-1.7,0.1-2.9,0.1c-0.1,0-0.1-0.1,0-0.3s0.1-0.3,0.2-0.3c1.2,0,2-0.1,2.6-0.3
			s1.1-0.5,1.5-1.1c0.4-0.5,0.7-1.3,1.1-2.4l8.2-25.2c0.4-1.1,0.5-1.9,0.5-2.4c0-0.5-0.3-0.9-0.7-1.1c-0.5-0.2-1.2-0.3-2.4-0.3
			c-0.1,0-0.1-0.1-0.1-0.3c0.1-0.2,0.2-0.3,0.3-0.3l2.8,0.1c1.6,0.1,2.9,0.1,3.9,0.1c1.1,0,2.5,0,4.1-0.1l2.8-0.1
			c0.1,0,0.1,0.1,0.1,0.3c-0.1,0.2-0.2,0.3-0.3,0.3c-1.1,0-2,0.1-2.6,0.3c-0.6,0.2-1.1,0.6-1.4,1.1c-0.4,0.5-0.7,1.3-1.1,2.4
			l-3.8,11.6l13.6-10.5c1.4-1.1,2.2-2,2.5-2.9c0.2-0.7,0.1-1.2-0.4-1.5c-0.5-0.4-1.2-0.5-2.3-0.5c-0.1,0-0.1-0.1-0.1-0.3
			c0.1-0.2,0.2-0.3,0.3-0.3l2.5,0.1c1.6,0.1,3,0.1,4.4,0.1c1.5,0,3,0,4.6-0.1l2.4-0.1c0.1,0,0.1,0.1,0.1,0.3
			c-0.1,0.2-0.2,0.3-0.3,0.3c-1.7,0-3.6,0.5-5.9,1.4c-2.3,1-4.5,2.2-6.7,3.8l-8.1,6.3l4.4,10.9c1.2,3.4,2.2,5.8,2.9,7.2
			c0.7,1.4,1.4,2.3,2,2.6c0.6,0.3,1.5,0.5,2.6,0.5C125.3,101.2,125.4,101.3,125.3,101.5z"/>
	
		<path class="st5" d="M158,18.2c1.6,0.3,2.9,0.6,3.7,1.1c0.3,0.1,0.5,0.2,0.5,0.4c0,0.2,0,0.4,0,0.8l-1.8,7.6
			c0,0.1-0.1,0.2-0.3,0.2c-0.2,0-0.3,0-0.3-0.2c-0.3-2.9-1.2-5.1-2.7-6.7c-1.5-1.6-3.7-2.3-6.4-2.3c-3.6,0-6.7,1.3-9.6,4
			c-2.8,2.7-4.9,6.2-6.4,10.7c-1.1,3.3-1.6,6.4-1.4,9.2c0.2,2.8,0.9,5,2.3,6.6c1.4,1.6,3.3,2.4,5.8,2.4c2.3,0,4.6-0.8,6.9-2.3
			c2.3-1.5,4.7-3.9,7.2-7.1c0.1-0.1,0.2-0.2,0.4-0.2c0.2,0,0.3,0.1,0.2,0.2l-3.2,7.4c-0.2,0.4-0.4,0.7-0.5,0.8
			c-0.1,0.1-0.4,0.3-0.8,0.4c-3.6,1.2-7.1,1.8-10.5,1.8c-4.4,0-7.8-0.9-10.2-2.6c-2.4-1.8-3.8-4-4.3-6.7c-0.5-2.7-0.3-5.5,0.7-8.5
			c1.1-3.5,3-6.5,5.8-9.2c2.7-2.7,5.9-4.7,9.4-6.2c3.6-1.5,7.1-2.2,10.6-2.2C154.7,17.8,156.3,17.9,158,18.2z"/>
	
	<path class="st5" d="M14,101.7V67.5h12.2c10.3,0,16.6,6.4,16.6,17c0,10.7-6.3,17.1-16.7,17.1H14z M25.8,95.6c6.5,0,9.9-3.4,9.9-11
		c0-7.6-3.4-10.9-9.9-10.9h-4.7v22H25.8z"/>
</g>
<path class="virus" d="M206.5,30.9l7.5-5.2h-8.5c-0.2-0.7-0.5-1.3-0.7-1.8L209,17l-6.8,3c-0.7-0.8-1.5-1.5-2.2-2l0.9-7l-4.6,5.1
		c-1.1-0.4-2.1-0.7-3.3-0.8L191,8.7l-2,6.4c-1.2,0.1-2.3,0.4-3.4,0.7l-4.4-5.2l0.7,6.9c-0.9,0.6-1.7,1.3-2.3,2l-6.6-3.1l4,6.9
		c-0.3,0.6-0.6,1.3-0.8,1.9l-8.3-0.2l7.3,5.3c0,0.4,0,0.8-0.1,1.3l-8.4,3.5l8.8,1.8c0.1,0.5,0.2,1,0.3,1.4l-6,6.3l7.9-1.7
		c0.4,0.7,0.9,1.3,1.4,1.8l-2.6,7.4l6-4.4c0.8,0.5,1.7,1,2.5,1.3l0.6,7.3l3.6-6.3c0.6,0.1,1.1,0.1,1.7,0.1c0.5,0,0.9,0,1.3-0.1
		l3.5,6.4l0.8-7.3c0.9-0.3,1.8-0.7,2.6-1.2l5.9,4.5l-2.4-7.4c0.5-0.6,1-1.2,1.4-1.8l7.9,1.8l-5.8-6.5c0.1-0.5,0.2-0.9,0.3-1.4
		l8.8-1.7l-8.4-3.7C206.5,31.6,206.5,31.2,206.5,30.9z"/>
</svg>
